<svg xmlns="http://www.w3.org/2000/svg" width="140" height="140" viewBox="0 0 140 140">
    <g fill="none" fill-rule="evenodd">
        <g stroke-width="2.6">
            <g>
                <path stroke="#445C7D" d="M72.548 28.356v10.753c0 .467.378.846.845.846h9.322c.467 0 .845-.379.845-.846V20.64c0-.466-.378-.845-.845-.845H62.362M52.177 133.577H41.99m0 0H1.267c-.467 0-.845-.378-.845-.845V102.37m41.569 31.207v-9.373c0-.467-.378-.845-.845-.845H30.43m-7.158 0H11.728c-.467 0-.845-.378-.845-.846v-9.355c0-.468.378-.846.845-.846h40.449m0 0v-9.096c0-.468.378-.846.844-.846h19.665m-20.51 9.942v10.201c0 .468.379.846.845.846h8.497c.466 0 .844-.378.844-.846v-9.355c0-.468.378-.846.845-.846h19.508c.467 0 .845.378.845.846v10.2m29.73 0v-10.2c0-.468-.377-.846-.844-.846H94.04c-.467 0-.845-.378-.845-.845v-8.251c0-.468-.378-.846-.844-.846H72.686m0 0V82.502c0-.467.378-.845.844-.845h19.458M31.805 50.726h19.527c.466 0 .845.378.845.845v17.917c0 .467.378.846.844.846h9.341M31.805 50.726V39.955m0 10.77V60.1c0 .466.378.845.845.845h8.496c.467 0 .845.378.845.845v27.86c0 .467-.378.845-.845.845H32.65c-.467 0-.845.38-.845.846v11.03M10.883 30.013V20.64c0-.467.378-.846.845-.846H30.96c.466 0 .844.379.844.846v19.315m-20.922-9.942H.423m10.46 0h12.388m-22.849 0V10.145c0-.467.378-.845.845-.845H41.99M.422 30.013v20.713m31.383-10.771H10.883M.423 50.725H20.5c.466 0 .844.379.844.846v8.528c0 .466-.378.845-.844.845h-8.772c-.467 0-.845.378-.845.845v19.022c0 .467.378.846.845.846H30.96c.466 0 .844-.379.844-.846V71.18c0-.467-.378-.845-.844-.845h-9.617M.422 50.726v51.644m0 0h9.617c.466 0 .844-.379.844-.845v-11.03m20.922 11.875h10.186m-10.186 0H22.19c-.467 0-.845-.379-.845-.845v-11.03m41.018-20.161h9.341c.467 0 .845-.379.845-.846V51.571c0-.467.378-.845.845-.845H92.35c.466 0 .844.378.844.845v8.528c0 .466-.378.845-.844.845h-7.946c-.468 0-.845.378-.845.845v7.7c0 .466.377.845.845.845h18.956c.468 0 .845-.379.845-.846V61.79c0-.467.378-.845.845-.845h7.395c.467 0 .845.378.845.845v19.022c0 .467-.378.846-.845.846H92.988M62.362 70.334v19.315c0 .467-.378.845-.844.845H53.02c-.466 0-.844-.378-.844-.845v-7.992M41.99 9.3h9.341c.466 0 .845.378.845.845v8.804c0 .467.378.845.844.845h9.341M41.991 9.3v19.867c0 .467.378.846.845.846h9.34m10.186-10.219V40.37m0 20.575V40.369m0 0H41.991M60.711 9.3h31.933M60.711 133.578h11.837m0 0V123.36m0 10.218h20.647m0 0h30.538c.466 0 .845-.378.845-.845V102.37m-31.383 31.207v-9.373c0-.467.378-.845.845-.845h10.166m20.372-20.989h-20.372m20.372 0V30.013m-31.59 51.644v8.837c0 .467-.378.846-.844.846H81.633h31.658M92.644 9.3h31.09c.465 0 .844.378.844.845v19.868M92.644 9.3v9.649c0 .467.378.845.845.845h9.872c.468 0 .845.379.845.846v19.315m9.085 0v9.925c0 .467-.378.846-.845.846h-7.395c-.467 0-.845-.379-.845-.846v-9.925m0 0H94.04c-.467 0-.845-.379-.845-.846V28.356m31.383 1.657h-10.443c-.466 0-.844-.379-.844-.846V18.413" transform="translate(-118 -161) translate(126 164)"/>
                <path stroke="#D341A5" d="M57.855 0v13.265c0 .467.378.846.844.846h29.002c.466 0 .845.378.845.845V44.51c0 .467.377.845.844.845h9.272c.466 0 .845.379.845.846v9.363c0 .467.377.846.844.846h18.315c.466 0 .844.378.844.845v39.486c0 .468-.378.846-.844.846H78.547c-.466 0-.844-.378-.844-.846V87.08c0-.467.378-.846.844-.846h10.135" transform="translate(-118 -161) translate(126 164)"/>
            </g>
        </g>
    </g>
</svg>
